<?xml version="1.0" encoding="UTF-8"?><svg id="Isolation_Mode" xmlns="http://www.w3.org/2000/svg" viewBox="0 0 89.6 28.82"><path d="M21.02,5.07c-.21-.8-.47-1.47-1.06-2.11-.61-.66-1.54-1.24-2.38-1.65-.7-.34-1.51-.64-2.28-.81-.08-.02-.53-.11-.63-.07,0,.01.02.03.03.03.16.17.65.45.88.6.1.06.19.13.28.2.42.31.72.65,1,1.06.32.48.53.96.61,1.52.08.63,0,1.4-.15,2.02-.14.58-.34,1-.83,1.4-.62.51-1.55.87-2.32,1.14-1.3.44-2.67.8-4.01,1.13-1.17.29-2.36.56-3.51.89-.82.23-1.53.49-2.25.91-.72.42-1.43.98-2.01,1.54-.58.55-1.01,1.09-1.28,1.81-.26.72-.36,1.59-.39,2.35-.02.6,0,1.15.08,1.75.06.47.14,1.1.31,1.54.05.14.18.43.39.32.19-.1.42-.49.52-.66.23-.39.44-.78.68-1.16.26-.43.53-.77.94-1.1.6-.48,1.39-.81,2.13-1.06,1.18-.4,2.47-.71,3.69-.99,1.04-.24,2.09-.46,3.14-.67,1.07-.22,2.19-.44,3.23-.76.93-.29,1.71-.67,2.49-1.21.84-.57,1.6-1.26,2.12-2.09.56-.89.87-1.97.94-3,.06-.97-.1-1.94-.36-2.88ZM9.96,23.2h-1.44l.1-7.02c-.95.23-1.82.46-2.73.76-.91.31-1.67.7-2.11,1.05-.44.35-.68.81-.92,1.2-.24.39-.56.95-.68,1.15-.12.2-.06.11-.1.16l-.09,2.7H.75c-.21,0-.39.08-.53.2s-.22.29-.22.48c0,.37.34.68.75.68h9.22c.2,0,.39-.08.53-.2s.22-.29.22-.48c0-.37-.34-.68-.75-.68ZM16.95,3.15c-.23-.61-.67-1.1-1.18-1.55-.94-.82-1.98-1.15-3.28-1.34C10.51-.03,8.07-.02,6.04.02c-.88.02-1.99.02-2.85.19-.34.07-.77.19-1.04.4-.01,0-.02.02-.04.03-.05.04-.09.12-.13.21v11.71c.11-.07.25-.2.32-.26.23-.21.46-.4.71-.59.65-.47,1.54-.96,2.3-1.27.59-.24,1.05-.34,1.67-.44.41-.07.99-.16,1.2-.51.21-.36.04-1.39.02-1.81-.06-.96-.06-1.98.01-2.94.03-.4.04-.95.42-1.22.36-.26.93-.35,1.39-.36.67-.02,1.46.1,2.08.32.62.22,1.1.55,1.5,1.03.38.46.69,1.05.85,1.6.13.45.15.84.2,1.3.02.22.05.42.36.34.33-.09.78-.36,1.05-.56.36-.27.6-.56.78-.95.2-.45.29-.98.32-1.46.04-.55,0-1.11-.21-1.64ZM53.03,8.23c-1.13,0-2.05.78-2.05,1.73s.92,1.73,2.05,1.73,2.05-.78,2.05-1.73-.92-1.73-2.05-1.73ZM32.01,22.47c-.05-.24-.22-.46-.42-.54-.2-.08-.43-.02-.68.06-.25.07-.54.16-.73.13s-.31-.18-.47-.41c-.04-.06-.08-.12-.12-.18,0-.14,0-.3,0-.47v-4.55c0-.99-.17-1.76-.5-2.32-.34-.56-.84-.96-1.52-1.21-.68-.25-1.58-.37-2.72-.37-.44,0-.88.02-1.32.07-.44.05-.94.13-1.5.24-.56.12-1.12.25-1.69.43-1,.3-2.42.69-2.54,1.82-.04.35.01.79.1,1.17.09.38.22.71.55.92.33.21.85.29,1.35.31s.99-.04,1.41-.18c.42-.15.77-.39.94-.67.17-.28.17-.59.11-.92-.07-.33-.2-.68-.4-.93-.1-.13-.22-.23-.31-.32.19-.23.46-.38.71-.47.31-.12.69-.19,1.12-.19s.8.08,1.11.24c.31.16.56.44.76.83.2.39.3.95.3,1.67v1.11c-2.75.17-4.81.58-6.16,1.24-1.35.66-2.03,1.56-2.03,2.7,0,.57.15,1.07.45,1.5.3.44.75.78,1.35,1.02.59.24,1.29.37,2.1.37s1.59-.14,2.31-.42c.73-.28,1.47-.73,2.24-1.35l.21.06c.22.67.57,1.14.97,1.53.22.18.5.31.86.37.4.07.91.04,1.34.02.42-.03.76-.06,1.12-.18.16-.05.32-.12.48-.2l.34-.2c.07-.05.14-.1.2-.15.28-.23.45-.5.57-.76.12-.26.19-.52.14-.76ZM25.53,20.77c0,.36-.12.7-.34,1.02-.22.32-.53.57-.91.76-.38.19-.79.29-1.22.29-.56,0-1-.13-1.32-.38-.32-.25-.48-.62-.48-1.1,0-.81.35-1.42,1.05-1.84.7-.42,1.77-.64,3.23-.68v1.93ZM46.15,14.4c-.86-.92-2.16-1.38-3.87-1.38-.76,0-1.51.13-2.23.4-.72.27-1.5.71-2.33,1.31l-.17-.03.22-1.59h-1.79l-4.02.09v.75c.37.06.64.12.83.2.19.07.33.16.43.26.1.1.17.23.22.38.05.15.09.34.1.56.02.22.02.59.02,1.11v9.62c0,.56-.04.95-.11,1.17-.08.23-.21.4-.39.53-.18.12-.5.24-.95.34v.73h7.23v-.73c-.51-.09-.85-.2-1.05-.33-.2-.14-.34-.32-.42-.54-.08-.23-.11-.61-.11-1.17v-2.08c.96.19,1.93.29,2.93.29,1.47,0,2.7-.21,3.71-.65,1.01-.43,1.76-1.07,2.27-1.92.51-.86.76-1.92.76-3.18,0-1.83-.43-3.21-1.29-4.13ZM42.32,22.07c-.47.71-1.15,1.06-2.04,1.06s-1.5-.21-1.91-.64c-.41-.43-.61-1.1-.61-2v-3.73c0-.39.13-.74.39-1.05.26-.31.59-.55,1-.72.41-.17.84-.25,1.27-.25.89,0,1.54.35,1.97,1.05.42.71.63,1.79.63,3.24,0,1.31-.23,2.32-.7,3.03ZM56.03,22.87c-.17-.07-.3-.13-.39-.22-.09-.08-.16-.16-.22-.25-.05-.1-.1-.2-.13-.32-.03-.12-.05-.28-.07-.5-.02-.22-.02-.52-.02-.92v-7.56h-1.87l-4.13.09v.72c.34.05.62.11.83.17.22.07.38.17.51.29.13.13.21.3.26.51.05.21.07.49.07.84v4.94c0,.67-.03,1.14-.1,1.39-.07.25-.19.46-.37.61-.18.15-.52.27-1.01.36v.7h7.32v-.7c-.28-.05-.51-.11-.68-.17ZM88.92,23.19c-.19-.08-.33-.17-.44-.28-.1-.11-.18-.25-.24-.42-.06-.17-.1-.4-.11-.69-.02-.29-.02-.6-.02-.93v-4.13c0-.65-.07-1.21-.22-1.7-.14-.49-.38-.91-.7-1.24-.33-.34-.76-.59-1.29-.77-.53-.18-1.2-.26-2-.26-.56,0-1.09.07-1.6.21-.51.14-.99.33-1.45.57-.46.23-.99.56-1.6.97l-.18-.03.22-1.63h-1.85l-4.03.09v.77c.47.07.8.16.99.27.19.1.33.23.43.39.09.16.15.38.18.64.02.27.03.68.03,1.24v4.64c0,.72-.03,1.21-.1,1.48-.07.27-.19.49-.37.64-.18.16-.51.29-.98.39v.74h7.11v-.74c-.46-.08-.78-.21-.96-.37-.18-.16-.3-.38-.36-.66-.05-.28-.08-.77-.08-1.49v-4.35c0-.35.14-.69.41-1,.27-.31.61-.56,1.02-.73s.79-.27,1.16-.27c.28,0,.5.02.68.07.18.05.34.12.47.21.14.09.26.21.38.36.11.15.2.33.26.55.06.22.11.5.14.84s.04.78.04,1.31v3.01c0,.72-.03,1.21-.1,1.49-.07.27-.19.49-.36.65-.18.16-.49.29-.94.37v.74h7.14v-.74c-.27-.05-.49-.12-.68-.19Z" fill="#fff"/><path d="M72.77,15.05c-.21-.59-.61-1.23-1.08-1.69-.47-.46-1.01-.74-1.54-.9-.54-.16-1.06-.19-1.46-.11-.39.09-.66.3-1,.63-.34.34-.76.8-1.13,1.25-.37.45-.69.88-1.01,1.24-.06.07-.12.14-.17.2.18-.37.42-.86.69-1.41.28-.57.6-1.2.73-1.91.13-.7.08-1.48-.06-2.04-.13-.56-.33-.9-.72-1.11-.39-.22-.96-.3-1.64-.23-.67.07-1.45.28-2.05.6-.59.32-1,.75-1.28,1.19s-.43.9-.42,1.27c.01.36.18.64.47,1.02.29.37.71.84,1.11,1.26.25.25,1.24,1.09,1.07,1.33-.14.2-.81-.8-.92-.94-.3-.39-.64-.79-1.07-1.13-.59-.48-1.35-.84-1.95-1.04-.59-.19-1.02-.21-1.43-.02-.4.19-.78.58-1.07,1.14-.29.55-.5,1.27-.51,1.9-.01.62.17,1.17.44,1.61.26.45.61.81.96.99.35.19.71.2,1.21.17.5-.03,1.16-.1,1.77-.19.57-.09,1.11-.19,1.6-.26.02.06.06.12.09.18-.21.07-.43.14-.66.22-.65.2-1.38.42-2.03.82-.66.4-1.24.97-1.6,1.44-.36.48-.49.85-.39,1.25.09.4.42.83.94,1.23.52.4,1.23.76,1.89.93.67.17,1.3.15,1.84.03.55-.12,1.01-.33,1.3-.59.29-.26.4-.57.49-1.02.1-.45.19-1.04.25-1.59.06-.56.08-1.08.14-1.54.01-.08.02-.16.03-.23.04.26.08.54.12.84.09.61.18,1.3.48,1.97.3.66.79,1.3,1.23,1.71.44.41.81.61,1.26.6.46,0,.99-.2,1.53-.58.54-.38,1.07-.93,1.39-1.49.32-.55.43-1.11.41-1.62-.01-.51-.15-.97-.37-1.28-.23-.3-.53-.46-1-.64-.46-.18-1.08-.38-1.67-.55-.59-.16-1.15-.29-1.64-.44-.11-.03-.21-.06-.32-.1,0-.01.01-.03.01-.05.39.07.86.16,1.38.27.67.13,1.42.28,2.2.25.79-.03,1.62-.24,2.2-.47.58-.23.9-.49,1.05-.87.15-.39.12-.92-.09-1.5ZM64.26,17.99c-.58,0-1.06-.43-1.06-.96s.48-.97,1.06-.97,1.07.44,1.07.97-.48.96-1.07.96Z" fill="#e95296"/></svg>